<svg id="svg" version="1.1" width="400" height="400" xmlns="http://www.w3.org/2000/svg" xmlns:xlink="http://www.w3.org/1999/xlink" style="display: block;"><g id="svgg"><path id="path0" d="M77.861 11.911 C 74.906 14.304,74.805 18.752,77.259 38.500 C 84.133 93.829,84.364 97.328,81.554 103.401 C 76.526 114.266,75.858 116.280,74.469 124.754 C 71.209 144.637,74.081 160.251,85.087 182.500 C 91.005 194.461,97.181 205.581,98.815 207.215 C 99.467 207.867,100.000 208.915,100.000 209.545 C 100.000 210.175,100.900 211.505,102.000 212.500 C 103.100 213.495,104.000 214.929,104.000 215.686 C 104.000 216.443,104.675 217.322,105.500 217.638 C 106.325 217.955,107.000 218.841,107.000 219.607 C 107.000 220.373,107.353 221.000,107.784 221.000 C 108.216 221.000,109.426 222.462,110.474 224.250 C 116.058 233.773,131.643 246.508,142.807 250.670 L 145.114 251.530 142.075 256.015 C 140.404 258.482,139.028 261.198,139.018 262.050 C 139.008 262.903,138.615 264.028,138.144 264.550 C 137.673 265.073,136.101 269.550,134.649 274.500 C 130.722 287.892,129.413 292.225,124.983 306.500 C 114.635 339.843,112.000 353.234,112.000 372.470 C 112.000 383.485,113.260 391.190,116.054 397.250 L 117.321 400.000 198.020 400.000 L 278.719 400.000 279.436 385.883 C 280.317 368.520,280.150 369.012,284.811 370.095 C 308.414 375.579,327.168 361.378,332.926 333.663 C 336.576 316.093,336.588 316.067,343.855 309.527 C 347.510 306.238,352.864 301.182,355.754 298.291 L 361.008 293.034 364.254 295.013 C 374.874 301.489,380.251 294.335,376.541 278.664 C 375.738 275.274,374.322 268.675,373.393 264.000 C 370.043 247.137,366.788 246.473,347.727 258.760 C 344.002 261.162,338.030 264.495,334.457 266.167 C 323.453 271.316,323.001 282.000,333.788 282.000 C 336.939 282.000,346.000 285.777,346.000 287.091 C 346.000 287.472,342.288 290.995,337.750 294.919 C 327.964 303.383,326.999 304.402,324.301 309.110 C 322.198 312.780,318.000 328.786,318.000 333.132 C 318.000 335.787,314.090 343.726,310.265 348.835 C 305.113 355.717,298.099 357.511,286.299 354.964 L 281.500 353.928 281.313 336.214 C 280.954 302.048,277.383 285.326,265.369 261.547 C 258.994 248.928,258.596 250.255,270.500 244.430 C 278.168 240.678,280.921 239.065,282.477 237.415 C 283.040 236.818,285.650 234.616,288.278 232.522 C 297.440 225.219,307.836 209.421,312.311 196.000 C 320.533 171.340,320.460 113.808,312.186 98.348 C 311.078 96.276,312.989 88.878,317.961 76.000 C 330.114 44.521,334.018 22.927,328.545 17.455 C 325.555 14.464,324.086 14.418,316.506 17.082 C 302.746 21.918,282.540 33.226,269.698 43.275 L 265.896 46.251 259.699 43.003 C 236.462 30.822,195.823 30.133,166.000 41.414 C 164.075 42.142,160.700 43.295,158.500 43.976 C 153.798 45.432,143.966 49.475,139.000 51.994 C 131.582 55.759,131.560 55.752,126.518 48.028 C 116.395 32.520,111.103 27.225,90.761 12.250 C 86.934 9.433,81.111 9.280,77.861 11.911 M139.077 124.923 C 142.441 128.287,142.821 131.802,140.284 136.096 C 137.777 140.340,130.943 140.494,127.250 136.389 C 120.006 128.338,131.423 117.269,139.077 124.923 M276.077 124.923 C 281.960 130.806,278.532 138.925,270.022 139.265 C 261.928 139.587,258.148 130.698,263.923 124.923 C 267.853 120.993,272.147 120.993,276.077 124.923 M267.020 167.510 C 272.177 170.177,273.794 177.206,270.100 180.900 C 267.395 183.605,252.916 193.127,246.500 196.420 C 244.850 197.267,242.825 198.364,242.000 198.859 C 225.125 208.969,183.341 210.189,160.000 201.251 C 138.384 192.974,128.227 173.564,143.000 168.762 C 145.760 167.865,154.000 173.911,154.000 176.833 C 154.000 189.377,215.439 193.746,235.000 182.593 C 237.475 181.182,240.963 179.263,242.750 178.329 C 244.537 177.394,246.000 176.263,246.000 175.815 C 246.000 175.367,246.460 175.000,247.021 175.000 C 247.951 175.000,255.810 170.260,257.000 168.982 C 257.645 168.289,262.257 166.156,263.300 166.068 C 263.739 166.030,265.414 166.680,267.020 167.510 " stroke="none" fill="#000000" fill-rule="evenodd"></path></g></svg>