<?xml version="1.0" standalone="no"?>
<!DOCTYPE svg PUBLIC "-//W3C//DTD SVG 20010904//EN"
 "http://www.w3.org/TR/2001/REC-SVG-20010904/DTD/svg10.dtd">
<svg version="1.0" xmlns="http://www.w3.org/2000/svg"
 width="300.000000pt" height="300.000000pt" viewBox="0 0 300.000000 300.000000"
 preserveAspectRatio="xMidYMid meet">
<metadata>
Created by potrace 1.10, written by Peter Selinger 2001-2011
</metadata>
<g transform="translate(0.000000,300.000000) scale(0.050000,-0.050000)"
fill="#000000" stroke="none">
<path d="M3205 5559 c-1053 -86 -2222 -685 -2702 -1385 -521 -761 -426 -1588
313 -2694 625 -936 948 -1081 2424 -1087 1212 -6 1953 359 2347 1154 344 694
364 2038 40 2679 -359 711 -1153 1261 -1925 1334 -229 22 -223 22 -497 -1z
m-1460 -2139 c161 -179 -34 -453 -250 -351 -154 73 -158 323 -7 400 88 45 189
26 257 -49z m3180 1 c79 -88 77 -215 -3 -306 -135 -150 -382 -52 -382 153 0
212 245 309 385 153z m-185 -999 c173 -124 120 -287 -153 -465 -628 -412 -875
-489 -1507 -472 -781 21 -1239 200 -1420 555 -171 335 201 519 406 200 108
-168 368 -261 844 -302 600 -52 847 14 1396 374 283 185 317 194 434 110z"/>
</g>
</svg>
