<?xml version="1.0" standalone="no"?>
<!DOCTYPE svg PUBLIC "-//W3C//DTD SVG 20010904//EN"
 "http://www.w3.org/TR/2001/REC-SVG-20010904/DTD/svg10.dtd">
<svg version="1.0" xmlns="http://www.w3.org/2000/svg"
 width="300.000000pt" height="300.000000pt" viewBox="0 0 300.000000 300.000000"
 preserveAspectRatio="xMidYMid meet">
<metadata>
Created by potrace 1.10, written by Peter Selinger 2001-2011
</metadata>
<g transform="translate(0.000000,300.000000) scale(0.100000,-0.100000)"
fill="#000000" stroke="none">
<path d="M0 1500 l0 -1500 1500 0 1500 0 0 1500 0 1500 -1500 0 -1500 0 0
-1500z m1941 1264 c281 -48 574 -237 770 -497 169 -224 214 -408 207 -841 -5
-257 -15 -342 -58 -482 -85 -280 -257 -483 -515 -609 -195 -95 -330 -131 -546
-143 -212 -12 -607 11 -724 43 -27 7 -81 18 -120 25 -184 30 -336 163 -540
470 -137 206 -257 452 -301 615 -26 97 -27 351 -1 445 26 95 97 235 165 326
317 426 1122 740 1663 648z"/>
<path d="M760 1743 c-29 -11 -69 -56 -75 -84 -9 -39 11 -94 42 -119 35 -27
102 -27 136 0 51 41 53 132 5 177 -24 22 -82 36 -108 26z"/>
<path d="M2343 1743 c-41 -8 -73 -59 -73 -115 0 -41 5 -54 29 -79 25 -25 37
-29 81 -29 44 0 56 4 81 29 24 25 29 37 29 80 0 41 -5 56 -27 80 -28 30 -75
44 -120 34z"/>
<path d="M2150 1153 c-222 -146 -352 -193 -533 -193 -181 0 -411 35 -488 75
-44 23 -88 64 -104 98 -21 44 -58 68 -104 69 -76 1 -131 -68 -112 -140 21 -78
111 -176 206 -224 162 -84 526 -129 752 -94 186 28 277 67 509 218 133 86 152
109 139 174 -10 56 -54 94 -107 94 -36 -1 -60 -12 -158 -77z"/>
</g>
</svg>
