<?xml version="1.0" standalone="no"?>
<!DOCTYPE svg PUBLIC "-//W3C//DTD SVG 20010904//EN"
 "http://www.w3.org/TR/2001/REC-SVG-20010904/DTD/svg10.dtd">
<svg version="1.0" xmlns="http://www.w3.org/2000/svg"
 width="300.000000pt" height="300.000000pt" viewBox="0 0 300.000000 300.000000"
 preserveAspectRatio="xMidYMid meet">
<metadata>
Created by potrace 1.10, written by Peter Selinger 2001-2011
</metadata>
<g transform="translate(0.000000,300.000000) scale(0.050000,-0.050000)"
fill="#000000" stroke="none">
<path d="M3060 5486 c-1098 -118 -1951 -799 -1947 -1556 2 -536 559 -1478 975
-1651 l107 -44 -56 -93 c-52 -84 -123 -301 -311 -942 -157 -536 -184 -936 -76
-1144 l29 -56 1197 0 1198 0 17 355 c45 941 -18 1382 -253 1769 l-76 126 163
80 c550 270 801 851 734 1702 -72 914 -815 1549 -1701 1454z m-829 -1177 c120
-69 189 -178 189 -301 0 -160 -75 -190 -248 -98 -121 64 -131 63 -281 -20
-196 -110 -271 -96 -271 51 0 330 331 529 611 368z m1787 -2 c91 -18 237 -154
265 -248 58 -195 -56 -287 -226 -181 -121 76 -154 77 -261 9 -260 -164 -377
-104 -287 150 88 248 233 326 509 270z m10 -830 c199 -90 52 -286 -379 -503
-330 -166 -948 -167 -1305 -4 -253 116 -373 323 -255 441 75 75 124 63 239
-61 143 -153 343 -210 738 -210 260 1 392 48 723 259 177 112 170 110 239 78z"/>
<path d="M1907 4278 c-110 -32 -227 -206 -227 -339 0 -74 20 -71 219 33 158
83 156 83 292 6 128 -72 169 -66 169 26 0 187 -245 334 -453 274z m421 -244
c15 -23 15 -39 0 -54 -29 -29 -88 -3 -88 39 0 68 49 77 88 15z"/>
<path d="M3690 4197 c-56 -45 -149 -219 -150 -281 0 -77 80 -63 261 47 102 62
185 56 285 -23 150 -118 206 66 64 209 -103 103 -356 129 -460 48z m516 -204
c15 -40 -17 -81 -54 -67 -46 18 -41 94 6 94 21 0 42 -12 48 -27z"/>
</g>
</svg>
