<?xml version="1.0" standalone="no"?>
<!DOCTYPE svg PUBLIC "-//W3C//DTD SVG 20010904//EN"
 "http://www.w3.org/TR/2001/REC-SVG-20010904/DTD/svg10.dtd">
<svg version="1.0" xmlns="http://www.w3.org/2000/svg"
 width="900.000000pt" height="897.000000pt" viewBox="0 0 900.000000 897.000000"
 preserveAspectRatio="xMidYMid meet">
<metadata>
Created by potrace 1.10, written by Peter Selinger 2001-2011
</metadata>
<g transform="translate(0.000000,897.000000) scale(0.100000,-0.100000)"
fill="#000000" stroke="none">
<path d="M2430 8494 c-222 -42 -351 -77 -579 -159 -121 -44 -442 -205 -549
-276 -24 -16 -45 -29 -48 -29 -15 0 -218 -164 -300 -243 -94 -89 -209 -230
-270 -332 -37 -60 -124 -239 -124 -254 0 -6 -6 -25 -14 -43 -20 -48 -37 -103
-52 -172 -19 -86 -43 -324 -43 -431 -1 -109 23 -389 39 -465 44 -211 46 -221
86 -355 24 -82 82 -256 104 -315 12 -30 25 -66 30 -80 11 -35 37 -94 110 -255
38 -86 202 -413 235 -470 19 -33 38 -67 42 -75 8 -18 89 -159 103 -180 6 -8
15 -24 20 -35 6 -11 18 -32 28 -47 9 -15 37 -60 61 -100 24 -40 101 -158 171
-263 169 -255 183 -274 267 -390 40 -55 80 -109 87 -120 27 -38 164 -222 180
-241 8 -11 28 -36 43 -56 58 -76 157 -203 163 -208 3 -3 30 -36 60 -75 59 -76
94 -118 197 -241 37 -45 86 -103 108 -129 22 -27 45 -53 50 -59 6 -6 37 -42
70 -81 32 -38 73 -86 90 -105 18 -19 88 -98 156 -175 152 -172 327 -362 434
-474 44 -46 98 -102 119 -125 107 -113 535 -542 721 -721 249 -240 288 -275
306 -275 7 0 58 44 113 97 535 517 934 928 1332 1372 21 24 46 51 55 60 8 9
57 66 109 126 52 61 112 130 134 155 23 25 61 70 86 99 25 30 50 59 55 65 11
12 92 110 208 251 40 50 113 142 162 205 49 63 92 117 95 120 6 5 301 400 372
500 64 89 290 422 333 491 5 9 37 60 70 114 33 53 68 108 77 123 10 15 21 34
25 42 4 8 33 59 65 113 32 53 58 99 58 101 0 3 19 37 43 78 43 73 257 499 257
511 0 4 13 35 29 69 29 65 81 192 108 263 8 22 21 55 29 73 8 18 14 39 14 47
0 8 6 29 14 47 7 18 21 60 31 93 10 33 23 80 31 105 32 110 57 229 89 415 22
129 21 577 -1 695 -74 395 -243 701 -529 960 -52 47 -250 200 -259 200 -3 0
-24 13 -48 29 -89 59 -373 205 -488 251 -30 12 -66 26 -80 32 -91 36 -296 97
-410 121 -200 43 -242 47 -515 47 -272 0 -319 -4 -510 -46 -397 -86 -813 -307
-1117 -592 -49 -47 -71 -61 -82 -55 -8 5 -41 33 -73 63 -200 190 -483 366
-786 489 -69 27 -226 74 -322 95 -195 43 -230 46 -518 45 -196 -1 -305 -6
-357 -15z m664 -2295 c25 -7 56 -29 86 -59 60 -62 78 -133 55 -219 -28 -106
-103 -165 -210 -166 -68 0 -117 19 -156 62 -54 58 -59 73 -59 165 0 77 3 94
24 127 55 86 152 120 260 90z m3136 -29 c61 -48 90 -107 90 -182 -1 -138 -97
-238 -229 -238 -70 0 -124 24 -164 73 -52 64 -57 79 -57 165 0 73 2 82 34 126
58 81 97 98 215 91 62 -4 78 -9 111 -35z m-146 -1003 c58 -48 86 -110 86 -191
0 -51 -5 -67 -31 -106 -26 -38 -129 -126 -163 -139 -6 -2 -39 -24 -74 -48 -35
-23 -65 -43 -67 -43 -2 0 -32 -19 -67 -43 -35 -24 -70 -46 -78 -50 -8 -4 -22
-11 -30 -17 -98 -65 -314 -165 -435 -202 -188 -58 -299 -76 -540 -89 -169 -9
-241 -10 -311 -1 -50 7 -112 12 -139 12 -45 0 -142 13 -300 41 -33 6 -80 14
-105 18 -41 7 -75 16 -155 43 -16 5 -44 13 -61 17 -44 12 -199 88 -264 130
-115 76 -214 186 -280 311 -19 36 -24 61 -24 127 -1 92 7 109 85 175 50 42
105 55 181 44 55 -8 137 -77 169 -141 76 -152 297 -247 689 -295 165 -20 625
-26 700 -10 25 6 63 13 85 16 37 6 88 21 191 58 74 27 228 111 397 218 37 24
76 48 85 53 9 6 45 29 80 53 35 23 66 42 68 42 3 0 18 10 34 21 15 12 52 29
80 39 69 23 132 10 194 -43z"/>
</g>
</svg>
