<?xml version="1.0" standalone="no"?>
<!DOCTYPE svg PUBLIC "-//W3C//DTD SVG 20010904//EN"
 "http://www.w3.org/TR/2001/REC-SVG-20010904/DTD/svg10.dtd">
<svg version="1.0" xmlns="http://www.w3.org/2000/svg"
 width="300.000000pt" height="299.000000pt" viewBox="0 0 300.000000 299.000000"
 preserveAspectRatio="xMidYMid meet">
<metadata>
Created by potrace 1.10, written by Peter Selinger 2001-2011
</metadata>
<g transform="translate(0.000000,299.000000) scale(0.050000,-0.050000)"
fill="#000000" stroke="none">
<path d="M0 2990 l0 -2990 3000 0 3000 0 0 2990 0 2990 -3000 0 -3000 0 0
-2990z m2230 2651 c254 -61 463 -168 675 -344 l95 -79 142 111 c567 444 1264
470 1947 73 1166 -678 662 -2255 -1433 -4482 -181 -192 -398 -412 -483 -488
l-155 -139 -170 169 c-1943 1925 -2774 3357 -2487 4285 193 626 1127 1073
1869 894z"/>
<path d="M1911 4096 c-46 -66 -39 -161 15 -213 144 -135 328 71 198 222 -45
53 -173 47 -213 -9z"/>
<path d="M3951 4096 c-76 -109 -4 -256 124 -256 121 0 192 173 105 260 -57 57
-187 55 -229 -4z"/>
<path d="M3886 3455 c-42 -22 -114 -67 -161 -99 -215 -147 -379 -205 -606
-213 -406 -14 -657 50 -782 199 -192 227 -411 32 -231 -205 335 -441 1371
-404 1945 69 159 131 16 346 -165 249z"/>
</g>
</svg>
