<?xml version="1.0" standalone="no"?>
<!DOCTYPE svg PUBLIC "-//W3C//DTD SVG 20010904//EN"
 "http://www.w3.org/TR/2001/REC-SVG-20010904/DTD/svg10.dtd">
<svg version="1.0" xmlns="http://www.w3.org/2000/svg"
 width="300.000000pt" height="300.000000pt" viewBox="0 0 300.000000 300.000000"
 preserveAspectRatio="xMidYMid meet">
<metadata>
Created by potrace 1.10, written by Peter Selinger 2001-2011
</metadata>
<g transform="translate(0.000000,300.000000) scale(0.100000,-0.100000)"
fill="#000000" stroke="none">
<path d="M1530 2743 c-89 -9 -213 -37 -309 -69 -336 -113 -570 -312 -643 -549
-28 -88 -29 -221 -4 -314 49 -181 232 -484 365 -603 28 -26 75 -56 105 -68
l54 -23 -29 -46 c-25 -42 -61 -150 -155 -471 -79 -268 -92 -468 -38 -572 l15
-28 598 0 599 0 8 178 c23 470 -8 691 -126 884 l-38 63 81 40 c119 58 231 170
286 285 51 108 69 177 81 321 12 131 0 339 -25 429 -56 209 -269 428 -493 506
-107 37 -218 49 -332 37z m-414 -588 c60 -35 94 -90 94 -151 0 -28 -5 -55 -12
-62 -19 -19 -61 -14 -112 13 -26 14 -54 25 -62 25 -9 0 -44 -16 -78 -35 -62
-34 -89 -41 -120 -29 -18 7 -22 86 -6 128 12 32 77 104 115 128 39 24 123 16
181 -17z m893 -1 c46 -9 118 -78 132 -124 17 -55 2 -101 -34 -113 -24 -8 -37
-4 -78 22 -61 38 -78 38 -131 5 -23 -15 -57 -33 -76 -41 -30 -12 -37 -12 -58
2 -16 10 -24 25 -24 44 0 63 57 172 102 198 25 13 115 17 167 7z m5 -415 c34
-16 52 -62 38 -95 -7 -13 -49 -48 -94 -78 -182 -118 -254 -140 -448 -139 -151
0 -249 17 -338 58 -65 30 -84 45 -123 99 -36 48 -37 89 -4 121 37 38 62 32
119 -30 33 -35 66 -60 93 -69 100 -35 317 -47 408 -22 60 16 123 47 230 115
88 57 84 55 119 40z"/>
<path d="M962 2140 c-18 -4 -44 -18 -58 -31 -32 -30 -64 -98 -64 -138 0 -29 2
-32 23 -26 12 4 50 22 85 41 34 19 69 34 77 34 9 0 40 -14 70 -31 64 -36 85
-33 85 11 0 64 -53 119 -125 133 -16 3 -37 8 -45 10 -8 3 -30 1 -48 -3z m63
-70 c0 -51 -29 -48 -33 3 -3 33 -1 38 15 35 13 -2 18 -12 18 -38z"/>
<path d="M1837 2093 c-14 -16 -35 -48 -46 -73 -46 -102 -13 -113 110 -38 40
24 50 26 81 18 20 -6 47 -19 61 -30 28 -23 63 -26 70 -7 11 28 -7 80 -38 111
-36 36 -69 46 -154 46 -49 0 -61 -4 -84 -27z m133 -33 c0 -29 -4 -40 -15 -40
-11 0 -15 11 -15 40 0 29 4 40 15 40 11 0 15 -11 15 -40z"/>
</g>
</svg>
