<?xml version="1.0" standalone="no"?>
<!DOCTYPE svg PUBLIC "-//W3C//DTD SVG 20010904//EN"
 "http://www.w3.org/TR/2001/REC-SVG-20010904/DTD/svg10.dtd">
<svg version="1.0" xmlns="http://www.w3.org/2000/svg"
 width="300.000000pt" height="300.000000pt" viewBox="0 0 300.000000 300.000000"
 preserveAspectRatio="xMidYMid meet">
<metadata>
Created by potrace 1.10, written by Peter Selinger 2001-2011
</metadata>
<g transform="translate(0.000000,300.000000) scale(0.050000,-0.050000)"
fill="#000000" stroke="none">
<path d="M1269 5430 c-26 -61 -27 -127 -6 -475 l23 -405 -51 -101 c-232 -457
-140 -950 303 -1621 205 -309 412 -510 586 -566 l73 -24 -57 -94 c-66 -109
-339 -986 -402 -1291 -53 -259 -49 -683 8 -788 l35 -65 1197 0 1198 0 17 355
c44 916 -8 1315 -225 1720 -48 90 -88 169 -88 174 0 6 69 44 153 86 279 137
511 393 620 681 153 406 151 1189 -4 1557 l-52 123 55 107 c60 119 208 545
208 601 0 147 -407 64 -696 -141 l-60 -43 -136 80 c-490 286 -1201 245 -1907
-110 l-187 -93 -142 138 c-308 299 -403 339 -463 195z m3239 -332 c-66 -164
-67 -164 -144 -118 -91 56 -81 84 60 176 151 99 148 101 84 -58z m-2963 -47
c90 -129 90 -122 5 -221 -84 -98 -82 -101 -99 135 -16 225 -8 233 94 86z m555
-911 c91 -91 28 -240 -101 -240 -123 0 -177 126 -98 227 51 65 141 71 199 13z
m2066 -23 c108 -146 -112 -307 -225 -164 -54 69 -52 118 9 179 66 66 160 59
216 -15z m-115 -646 c107 -107 61 -179 -222 -354 -600 -371 -1555 -303 -1781
127 -108 207 95 307 262 128 121 -131 214 -164 550 -195 374 -35 512 0 869
220 222 137 252 144 322 74z"/>
</g>
</svg>
