<?xml version="1.0" standalone="no"?>
<!DOCTYPE svg PUBLIC "-//W3C//DTD SVG 20010904//EN"
 "http://www.w3.org/TR/2001/REC-SVG-20010904/DTD/svg10.dtd">
<svg version="1.0" xmlns="http://www.w3.org/2000/svg"
 width="300.000000pt" height="300.000000pt" viewBox="0 0 300.000000 300.000000"
 preserveAspectRatio="xMidYMid meet">
<metadata>
Created by potrace 1.10, written by Peter Selinger 2001-2011
</metadata>
<g transform="translate(0.000000,300.000000) scale(0.100000,-0.100000)"
fill="#000000" stroke="none">
<path d="M0 1500 l0 -1500 445 0 446 0 -18 33 c-15 27 -18 57 -17 197 0 145 4
177 27 262 61 228 160 536 187 580 l29 47 -37 12 c-119 39 -273 218 -401 469
-78 152 -103 235 -103 355 -1 109 15 183 59 270 l26 50 -12 202 c-10 174 -9
207 3 238 13 31 19 35 50 35 39 0 64 -18 182 -133 l71 -69 93 47 c221 111 494
169 680 146 107 -14 187 -40 274 -91 l68 -40 30 22 c45 31 214 106 260 113 44
8 88 -14 88 -43 0 -28 -74 -241 -104 -301 l-28 -53 26 -59 c47 -110 58 -198
53 -427 -5 -228 -17 -291 -80 -422 -46 -97 -168 -215 -274 -269 -46 -23 -83
-43 -83 -46 0 -3 20 -42 44 -88 24 -45 56 -118 69 -162 44 -142 51 -222 44
-563 l-6 -312 455 0 454 0 0 1500 0 1500 -1500 0 -1500 0 0 -1500z"/>
<path d="M2212 2578 c-34 -22 -62 -47 -62 -54 0 -17 62 -57 71 -46 9 9 60 135
56 138 -1 2 -31 -15 -65 -38z"/>
<path d="M726 2483 c4 -54 9 -100 11 -103 5 -5 72 71 73 83 0 13 -74 117 -83
117 -5 0 -5 -44 -1 -97z"/>
<path d="M951 2064 c-25 -32 -26 -46 -6 -84 13 -26 21 -30 55 -30 45 0 70 26
70 72 0 64 -80 91 -119 42z"/>
<path d="M1975 2066 c-30 -31 -32 -55 -4 -90 56 -71 166 9 112 82 -28 38 -75
41 -108 8z"/>
<path d="M1909 1727 c-30 -18 -77 -48 -106 -66 -112 -69 -211 -87 -393 -71
-147 14 -196 32 -255 96 -57 61 -83 67 -120 29 -32 -31 -32 -63 1 -110 35 -52
59 -71 129 -105 139 -68 436 -80 585 -25 77 28 238 122 278 162 29 29 28 68
-3 98 -32 33 -51 31 -116 -8z"/>
</g>
</svg>
