<?xml version="1.0" standalone="no"?>
<!DOCTYPE svg PUBLIC "-//W3C//DTD SVG 20010904//EN"
 "http://www.w3.org/TR/2001/REC-SVG-20010904/DTD/svg10.dtd">
<svg version="1.0" xmlns="http://www.w3.org/2000/svg"
 width="900.000000pt" height="900.000000pt" viewBox="0 0 900.000000 900.000000"
 preserveAspectRatio="xMidYMid meet">
<metadata>
Created by potrace 1.10, written by Peter Selinger 2001-2011
</metadata>
<g transform="translate(0.000000,900.000000) scale(0.100000,-0.100000)"
fill="#000000" stroke="none">
<path d="M4460 8417 c-3 -3 -46 -10 -97 -16 -50 -6 -104 -18 -120 -26 -15 -8
-40 -15 -55 -15 -15 0 -37 -4 -50 -9 -13 -5 -66 -26 -118 -47 -215 -85 -415
-238 -587 -450 -46 -55 -83 -104 -83 -107 0 -4 -18 -34 -40 -68 -21 -33 -42
-71 -46 -82 -3 -12 -19 -50 -35 -84 -59 -125 -103 -291 -120 -448 -10 -96 -3
-322 10 -358 5 -12 12 -47 15 -77 7 -50 24 -111 46 -165 26 -61 63 -154 72
-180 6 -16 16 -41 23 -55 21 -42 62 -170 81 -255 28 -123 18 -352 -22 -495
-39 -138 -106 -284 -166 -361 -15 -20 -28 -41 -28 -47 0 -15 -156 -180 -219
-232 -100 -82 -309 -199 -358 -200 -10 -1 -29 -7 -43 -15 -14 -8 -36 -14 -49
-15 -13 0 -44 -7 -70 -14 -55 -18 -251 -37 -411 -42 -75 -2 -128 -8 -152 -18
-21 -9 -50 -16 -67 -16 -16 0 -42 -7 -57 -15 -16 -8 -38 -15 -50 -15 -11 0
-24 -4 -30 -9 -5 -5 -27 -14 -49 -21 -139 -43 -391 -215 -532 -362 -45 -47
-135 -160 -158 -199 -11 -19 -32 -54 -47 -79 -16 -25 -33 -56 -39 -70 -6 -14
-24 -52 -39 -85 -44 -98 -69 -177 -100 -320 -19 -83 -22 -131 -22 -287 0 -106
5 -195 11 -206 5 -10 13 -43 17 -73 4 -30 13 -66 20 -81 8 -15 14 -36 14 -47
0 -32 85 -219 148 -326 37 -63 160 -221 209 -267 45 -44 193 -160 253 -198
105 -68 270 -137 405 -171 44 -11 96 -24 115 -30 19 -6 127 -13 240 -16 169
-4 216 -2 268 11 35 9 77 16 94 16 16 0 44 6 61 13 18 8 57 21 87 31 111 35
233 95 353 174 67 43 134 100 208 175 60 62 109 117 109 123 0 6 10 19 21 30
12 10 42 46 68 79 65 85 78 101 149 174 34 36 62 69 62 73 0 14 153 117 232
156 154 76 233 98 413 116 149 16 272 8 327 -20 15 -8 36 -14 46 -14 11 0 25
-7 32 -15 7 -8 21 -15 31 -15 20 0 90 -35 137 -69 17 -11 33 -21 37 -21 4 0
24 -14 45 -30 21 -17 41 -30 45 -30 11 0 88 -57 144 -106 25 -22 76 -63 112
-92 87 -68 154 -141 263 -287 151 -203 197 -250 390 -403 22 -18 66 -47 96
-65 70 -41 268 -127 293 -127 10 0 27 -5 38 -11 55 -29 290 -68 434 -71 88 -3
263 17 310 34 17 6 48 13 70 16 22 2 49 11 60 18 11 8 32 14 47 14 15 0 30 5
33 10 3 6 13 10 20 10 36 0 215 97 325 176 112 80 256 225 325 326 49 71 100
155 118 193 10 22 32 68 48 102 16 34 29 68 29 77 0 9 6 33 14 53 54 147 73
359 51 578 -8 77 -24 172 -35 210 -12 39 -25 87 -31 108 -5 21 -13 45 -18 55
-5 9 -18 37 -29 62 -59 131 -80 168 -155 272 -92 128 -244 283 -344 350 -130
86 -165 107 -202 119 -20 7 -45 18 -56 25 -68 44 -267 95 -485 125 -36 5 -76
11 -90 14 -14 2 -52 8 -85 13 -74 12 -232 58 -262 78 -12 8 -28 14 -35 14 -7
0 -44 21 -83 46 -38 25 -81 52 -95 59 -24 12 -166 148 -222 211 -33 38 -148
228 -148 246 0 7 -7 22 -15 32 -8 11 -15 29 -15 40 0 12 -7 30 -15 40 -8 11
-15 32 -15 46 0 14 -5 31 -12 38 -6 6 -17 67 -24 135 -7 68 -14 128 -15 133
-2 9 1 37 23 179 15 100 41 194 88 315 12 30 26 69 32 85 6 17 14 35 18 40 4
6 29 53 55 105 91 181 110 231 140 367 22 97 33 196 37 338 2 55 -24 285 -36
320 -8 22 -22 67 -31 100 -62 212 -189 437 -330 583 -77 80 -192 179 -270 231
-91 61 -249 138 -340 165 -49 15 -103 32 -119 37 -16 5 -44 9 -62 9 -18 0 -45
5 -61 11 -28 11 -314 25 -323 16z m-671 -1037 c27 -13 43 -31 54 -59 15 -37
15 -43 -2 -80 -25 -58 -61 -83 -112 -79 -34 2 -47 10 -72 40 -50 62 -38 135
30 179 36 24 55 24 102 -1z m1594 6 c61 -26 85 -78 67 -146 -14 -53 -51 -80
-107 -80 -36 0 -50 6 -74 29 -28 29 -35 53 -30 116 3 35 15 52 56 77 36 22 46
22 88 4z m-47 -546 c24 -17 54 -71 54 -96 0 -36 -44 -84 -136 -148 -52 -36
-99 -66 -103 -66 -4 0 -26 -12 -47 -27 -42 -30 -83 -50 -154 -78 -25 -9 -55
-21 -68 -26 -12 -5 -66 -18 -119 -29 -117 -24 -333 -27 -433 -5 -36 8 -80 14
-99 15 -52 0 -162 34 -271 83 -68 31 -182 151 -199 209 -16 57 -10 86 25 127
23 27 32 31 79 31 49 0 55 -3 82 -35 15 -19 40 -50 55 -68 39 -47 137 -92 233
-107 28 -4 76 -13 108 -19 73 -15 364 -9 427 9 46 12 103 35 130 51 8 5 24 13
36 18 12 5 48 27 80 48 65 42 66 42 152 95 82 50 119 54 168 18z m-3497 -2996
c31 -8 81 -22 111 -30 30 -9 69 -20 85 -26 17 -5 44 -13 60 -17 38 -10 166
-77 236 -124 59 -39 209 -186 262 -257 185 -246 247 -386 247 -556 0 -84 -3
-100 -27 -145 -46 -84 -124 -105 -185 -50 -28 25 -32 35 -30 72 9 198 8 210
-31 289 -47 94 -49 98 -123 195 -65 85 -247 275 -263 275 -6 0 -26 11 -45 23
-19 13 -63 34 -98 46 -34 12 -76 27 -93 33 -16 5 -48 14 -70 18 -132 28 -207
58 -231 95 -26 40 -14 112 25 147 37 33 84 36 170 12z m5234 -211 c110 -27
158 -87 133 -163 -16 -49 -58 -76 -112 -72 -113 8 -171 5 -214 -12 -156 -61
-465 -335 -527 -466 -42 -90 -76 -194 -93 -285 -4 -22 -12 -53 -19 -68 -6 -16
-11 -39 -11 -52 0 -72 -69 -133 -136 -121 -38 8 -91 56 -100 92 -3 13 1 52 9
87 9 34 23 98 33 142 22 104 70 250 90 276 6 8 13 21 16 30 45 125 350 426
528 521 25 13 52 28 60 33 44 28 176 65 259 74 7 0 45 -7 84 -16z m-5693 -98
c34 -36 39 -111 10 -148 -51 -65 -123 -71 -176 -16 -23 24 -29 39 -29 74 0 36
6 50 34 79 31 32 41 36 86 36 42 0 56 -5 75 -25z m6259 -253 c12 -9 32 -33 44
-53 19 -32 19 -39 7 -69 -40 -97 -144 -108 -207 -21 -28 38 -29 74 -3 117 34
54 105 66 159 26z m-5179 -949 c19 -20 25 -35 24 -69 -2 -110 -128 -163 -199
-84 -27 30 -27 111 1 141 47 53 127 59 174 12z m4044 -182 c26 -27 31 -39 31
-80 0 -82 -62 -125 -146 -104 -94 25 -104 175 -14 214 38 16 96 3 129 -30z"/>
</g>
</svg>
