<?xml version="1.0" standalone="no"?>
<!DOCTYPE svg PUBLIC "-//W3C//DTD SVG 20010904//EN"
 "http://www.w3.org/TR/2001/REC-SVG-20010904/DTD/svg10.dtd">
<svg version="1.0" xmlns="http://www.w3.org/2000/svg"
 width="900.000000pt" height="900.000000pt" viewBox="0 0 900.000000 900.000000"
 preserveAspectRatio="xMidYMid meet">
<metadata>
Created by potrace 1.10, written by Peter Selinger 2001-2011
</metadata>
<g transform="translate(0.000000,900.000000) scale(0.100000,-0.100000)"
fill="#000000" stroke="none">
<path d="M3105 7880 c-76 -16 -143 -38 -201 -67 -73 -35 -219 -178 -250 -243
-53 -113 -59 -134 -59 -215 0 -74 3 -87 43 -169 35 -72 58 -103 118 -163 42
-40 80 -73 86 -73 24 0 85 -61 97 -98 16 -48 16 -49 -99 -202 -48 -63 -102
-146 -120 -185 -30 -62 -34 -80 -34 -155 -1 -60 4 -95 16 -120 10 -21 18 -67
20 -110 l3 -75 -305 -5 -305 -5 -85 -64 c-47 -36 -87 -68 -90 -71 -3 -3 -23
-19 -45 -35 -22 -17 -42 -32 -45 -36 -3 -3 -96 -75 -208 -160 -112 -85 -286
-217 -386 -294 -101 -77 -209 -160 -242 -185 -32 -25 -61 -47 -64 -51 -3 -3
-68 -53 -145 -111 -77 -58 -157 -121 -178 -141 l-37 -36 2 -2183 3 -2183 3303
-3 c3006 -2 3307 -1 3338 14 22 11 40 31 56 62 19 40 111 176 129 192 3 3 54
70 114 150 60 80 111 147 114 150 4 3 19 23 36 45 16 22 32 42 35 45 4 3 55
70 115 150 60 80 111 147 114 150 4 3 19 23 36 45 16 22 32 42 35 45 4 3 55
70 115 150 60 80 111 147 114 150 4 3 19 23 36 45 16 22 32 42 35 45 11 10 97
125 107 145 8 14 8 143 2 410 -4 215 -8 584 -9 820 0 237 -7 756 -15 1155 -8
399 -15 901 -15 1117 l0 392 -22 25 -23 25 -893 7 c-955 7 -922 5 -922 55 0
30 -60 251 -105 389 -8 25 -15 63 -15 85 0 48 35 194 50 209 5 5 10 16 10 23
0 7 16 45 36 85 74 153 102 188 304 388 103 102 195 201 205 220 21 43 45 132
45 167 0 14 -12 46 -26 71 -20 34 -38 49 -80 68 -30 13 -64 24 -76 24 -12 0
-44 6 -72 14 -144 40 -187 46 -334 46 -157 0 -240 -13 -502 -80 -25 -7 -72
-19 -105 -27 -33 -8 -85 -21 -115 -28 -174 -44 -387 -43 -685 3 -215 33 -265
37 -495 37 -235 0 -277 -3 -525 -40 -55 -9 -150 -15 -210 -15 l-110 0 -46 43
c-88 81 -141 122 -187 147 -43 23 -58 25 -197 27 -82 1 -168 -2 -190 -7z m313
-49 c9 -5 35 -16 57 -25 22 -10 65 -41 95 -71 30 -30 79 -71 108 -90 l52 -36
118 4 c64 2 149 9 187 15 39 6 106 17 150 24 49 7 195 12 380 13 299 0 354 -4
575 -43 67 -11 156 -16 305 -17 213 0 288 9 410 51 23 8 51 14 64 14 13 0 46
7 75 16 28 9 71 22 96 30 25 8 56 14 70 14 14 0 45 8 70 17 35 12 85 16 220
17 178 1 196 -1 366 -50 28 -8 61 -14 74 -14 34 0 84 -35 105 -75 19 -34 19
-36 0 -92 -30 -92 -56 -125 -242 -306 -166 -163 -223 -231 -268 -322 -11 -22
-25 -47 -31 -55 -6 -8 -14 -24 -17 -35 -3 -11 -15 -45 -27 -75 -49 -124 -61
-240 -35 -332 8 -29 20 -73 26 -98 6 -25 18 -61 25 -80 7 -19 27 -102 44 -185
17 -82 38 -180 46 -216 24 -101 16 -289 -14 -350 -34 -70 -90 -105 -179 -113
-39 -3 -99 -13 -134 -22 -35 -9 -77 -13 -98 -10 -20 3 -209 10 -421 16 -212 5
-414 14 -450 19 -36 6 -182 15 -325 21 -143 5 -282 14 -310 20 -44 10 -522 9
-1535 -1 -177 -2 -212 4 -245 43 -20 23 -25 41 -25 82 0 28 -5 57 -11 63 -7 7
-9 31 -5 65 4 29 9 146 12 261 6 205 5 209 -20 280 -14 41 -26 86 -26 102 0
50 45 166 86 222 13 17 24 36 24 41 0 5 9 17 21 28 11 10 46 52 76 92 42 56
57 85 61 117 7 66 -26 125 -94 170 -134 89 -217 196 -254 328 -18 68 1 146 67
271 19 35 117 135 158 161 52 33 99 55 117 55 9 0 32 6 50 14 18 8 51 18 73
24 52 12 280 15 303 3z m-1005 -4353 c66 -47 97 -106 97 -185 0 -74 -30 -136
-88 -180 -40 -31 -49 -33 -119 -33 -106 0 -144 25 -195 130 -54 110 18 269
133 293 50 11 139 -2 172 -25z m3104 -26 c63 -63 81 -125 63 -213 -11 -51 -20
-65 -66 -109 l-53 -50 -89 0 -89 0 -46 40 c-62 55 -77 89 -77 172 0 82 21 131
77 176 37 30 42 31 135 32 l97 0 48 -48z m-187 -967 c40 -25 90 -86 90 -109 0
-8 5 -18 10 -21 15 -9 12 -108 -4 -146 -8 -19 -27 -46 -43 -60 -36 -33 -143
-113 -163 -122 -8 -4 -49 -29 -90 -57 -246 -163 -431 -261 -580 -309 -257 -84
-370 -102 -670 -109 -230 -4 -422 9 -600 44 -42 7 -86 14 -99 14 -13 0 -49 7
-80 16 -31 8 -81 22 -111 31 -30 8 -70 21 -88 29 -18 8 -37 14 -42 14 -16 0
-153 67 -193 94 -21 14 -40 26 -44 26 -14 0 -149 129 -186 179 -85 113 -107
165 -107 246 0 52 4 68 29 102 16 21 47 54 70 73 38 30 49 33 110 34 53 0 75
-5 104 -23 34 -21 107 -99 107 -115 0 -4 10 -21 23 -39 89 -128 304 -214 652
-262 161 -22 736 -17 830 8 119 31 264 93 400 172 33 19 69 39 80 45 11 5 54
32 95 59 41 28 106 69 143 93 38 24 80 51 95 60 115 73 185 81 262 33z"/>
</g>
</svg>
