<!-- Generated by IcoMoon.io -->
<svg version="1.1" xmlns="http://www.w3.org/2000/svg" width="1024" height="1024" viewBox="0 0 1024 1024">
<title></title>
<g id="icomoon-ignore">
</g>
<path d="M0 512v-512h1024v1024h-313.067l0.747-14.080c2.347-45.547 4.16-76.587 4.587-80.32 0.32-2.347 0.853-21.333 1.173-42.133 1.6-85.013-5.653-135.040-27.307-189.333-4.907-12.267-16.96-35.2-25.067-47.68-5.227-7.893-6.72-10.987-5.867-12.053 0.64-0.747 4.053-2.347 7.787-3.733 10.347-3.733 33.28-15.573 44.48-22.933 45.867-30.507 74.56-71.253 90.133-128 8.427-30.933 11.52-59.093 11.413-107.2 0-49.067-2.24-73.6-9.28-100.8-9.92-38.507-28.587-69.76-61.76-103.787-20.48-21.013-39.36-36.16-61.12-49.28-38.293-23.040-72.96-33.28-117.653-34.88-15.787-0.533-43.307 0.64-51.947 2.24-1.067 0.213-4.587 0.747-7.787 1.173-35.733 4.48-92.8 20.907-130.88 37.653-84.267 37.333-142.4 89.92-168.32 152.213-17.92 43.413-19.093 90.987-3.2 138.88 9.92 29.973 34.667 78.827 57.6 113.92 41.387 63.467 75.733 96.64 108.267 104.64 11.413 2.773 11.52 2.987 6.080 9.387-9.387 11.093-17.067 27.84-24.64 53.76-8.64 29.333-11.307 38.507-14.4 48.213-1.707 5.547-4.16 13.547-5.44 17.6-1.28 4.16-4.053 12.8-6.080 19.2-16.213 51.413-25.493 88.747-30.293 122.667-3.093 21.653-3.947 58.347-1.6 72.96 2.027 12.8 6.827 27.947 11.413 36.16l3.093 5.547h-305.067v-512z"></path>
<path d="M501.867 539.093c-52.053-4.053-80.853-10.133-105.6-22.187-6.4-3.2-14.827-8.107-18.667-11.093-17.6-13.333-30.827-33.493-30.933-46.933 0-7.253 2.667-12.373 9.6-18.667 13.867-12.48 31.893-7.467 41.387 11.627 4.053 8 8.96 12.373 20.587 18.24 10.453 5.227 33.493 11.413 51.307 13.76s60.053 3.84 74.453 2.667c34.24-2.88 51.627-10.347 104-44.693 19.093-12.587 24-15.040 29.227-15.147 9.28 0 18.453 5.867 22.933 14.827 5.973 11.84 4.267 22.080-5.013 30.613-3.2 2.88-8.107 6.613-10.987 8.427-2.88 1.707-10.88 6.827-17.813 11.413-15.147 10.027-33.173 20.8-43.093 25.707-17.387 8.747-43.84 16.64-65.173 19.413-12.267 1.6-45.867 2.88-56.213 2.027z"></path>
<path d="M334.4 363.84c-18.347-8.533-19.413-37.973-1.6-47.040 17.707-8.853 37.333 3.2 37.333 22.933 0 10.88-6.080 20.693-15.147 24.427-5.44 2.347-15.253 2.133-20.587-0.32z"></path>
<path d="M685.12 365.12c-3.84-0.747-12.693-9.493-14.72-14.4-2.133-5.44-2.24-16.427-0.213-21.333 2.133-5.12 6.827-10.24 11.84-12.907 6.187-3.307 18.56-3.307 24.747 0 5.013 2.667 10.133 8.747 11.947 14.080 2.027 5.867 1.6 15.467-0.96 20.907-2.773 5.867-10.347 12.8-14.933 13.76-3.627 0.64-13.867 0.64-17.707-0.107z"></path>
</svg>
