<!DOCTYPE svg PUBLIC "-//W3C//DTD SVG 20010904//EN" "http://www.w3.org/TR/2001/REC-SVG-20010904/DTD/svg10.dtd">
<svg version="1.0" xmlns="http://www.w3.org/2000/svg" width="1600px" height="1600px" viewBox="0 0 16000 16000" preserveAspectRatio="xMidYMid meet">
<g id="layer1" fill="#000000" stroke="none">
 <path d="M4739 15978 c-93 -173 -150 -328 -197 -542 -27 -120 -27 -123 -27 -516 0 -435 7 -536 61 -870 26 -158 51 -288 84 -435 18 -77 36 -158 41 -180 22 -107 125 -488 198 -730 16 -55 41 -140 56 -190 14 -49 35 -115 45 -145 10 -30 37 -116 60 -190 23 -74 48 -155 57 -180 8 -25 33 -103 55 -175 22 -71 49 -159 59 -195 27 -86 89 -295 134 -450 180 -622 268 -826 460 -1073 25 -32 45 -63 45 -68 0 -4 -33 -18 -72 -29 -308 -89 -445 -160 -683 -355 -150 -123 -234 -204 -369 -356 -281 -314 -527 -651 -843 -1154 -152 -241 -466 -830 -572 -1075 -73 -168 -95 -220 -113 -265 -186 -468 -258 -827 -258 -1278 0 -338 34 -572 128 -887 50 -167 170 -439 276 -628 41 -72 195 -304 250 -376 394 -516 908 -944 1606 -1339 128 -72 512 -261 635 -312 50 -21 104 -43 120 -50 201 -85 635 -233 900 -307 176 -49 425 -113 498 -127 23 -5 98 -20 167 -34 69 -14 157 -30 195 -36 39 -6 115 -18 170 -26 393 -61 1004 -60 1400 0 673 103 1319 413 1925 924 236 200 511 482 706 726 456 571 682 1159 753 1960 39 435 39 1238 0 1675 -51 583 -178 1075 -401 1549 -273 584 -750 1098 -1323 1426 -112 64 -496 255 -513 255 -25 0 -142 61 -142 73 0 8 22 49 49 93 202 327 359 622 451 854 50 125 160 453 190 565 12 44 28 105 36 135 72 274 136 691 165 1080 28 369 27 1497 -1 1880 -14 190 -39 635 -60 1050 -5 107 -12 230 -16 273 l-7 77 -3183 0 -3183 0 -12 -22z m3701 -7653 c113 -8 219 -16 235 -19 17 -3 62 -10 100 -16 77 -12 98 -17 260 -56 207 -50 459 -138 632 -221 84 -40 338 -184 443 -251 36 -23 124 -79 195 -125 72 -46 179 -115 238 -153 215 -137 315 -224 359 -312 19 -40 23 -63 23 -147 0 -96 -2 -103 -38 -177 -88 -176 -273 -274 -425 -224 -58 18 -169 81 -337 191 -66 43 -165 107 -220 143 -474 308 -826 479 -1105 536 -230 47 -282 51 -655 50 -493 -2 -814 -26 -1085 -83 -133 -27 -150 -32 -275 -66 -205 -55 -401 -148 -505 -238 -47 -40 -102 -114 -137 -183 -53 -106 -135 -187 -233 -232 -74 -34 -179 -35 -263 -2 -68 25 -184 128 -221 194 -81 143 -47 318 104 541 199 293 502 502 935 644 105 34 174 53 340 91 138 32 459 80 685 101 69 6 154 15 190 19 112 13 546 10 760 -5z m-2928 -2730 c130 -65 208 -200 208 -361 0 -195 -125 -346 -317 -383 -149 -29 -316 48 -387 178 -124 228 -3 542 227 591 23 5 81 7 129 5 69 -3 98 -9 140 -30z m5463 7 c51 -26 147 -124 175 -178 49 -96 50 -265 2 -363 -34 -70 -117 -155 -179 -184 -42 -19 -65 -22 -173 -22 -111 0 -130 3 -173 24 -75 37 -143 104 -177 177 -29 60 -31 72 -31 175 0 60 5 127 12 147 16 48 57 107 111 158 93 89 110 94 283 89 88 -2 118 -6 150 -23z"/>
 </g>

</svg>