<!DOCTYPE svg PUBLIC "-//W3C//DTD SVG 20010904//EN" "http://www.w3.org/TR/2001/REC-SVG-20010904/DTD/svg10.dtd">
<svg version="1.0" xmlns="http://www.w3.org/2000/svg" width="960px" height="960px" viewBox="0 0 9600 9600" preserveAspectRatio="xMidYMid meet">
<g id="layer2" fill="#a8a8a8" stroke="none">
 <path d="M0 4800 l0 -4800 4800 0 4800 0 0 4800 0 4800 -1468 0 -1467 0 7 -132 c22 -427 39 -718 43 -753 3 -22 8 -200 11 -395 15 -797 -53 -1266 -256 -1775 -46 -115 -159 -330 -235 -447 -49 -74 -63 -103 -55 -113 6 -7 38 -22 73 -35 97 -35 312 -146 417 -215 430 -286 699 -668 845 -1200 79 -290 108 -554 107 -1005 0 -460 -21 -690 -87 -945 -93 -361 -268 -654 -579 -973 -192 -197 -369 -339 -573 -462 -359 -216 -684 -312 -1103 -327 -148 -5 -406 6 -487 21 -10 2 -43 7 -73 11 -335 42 -870 196 -1227 353 -790 350 -1335 843 -1578 1427 -168 407 -179 853 -30 1302 93 281 325 739 540 1068 388 595 710 906 1015 981 107 26 108 28 57 88 -88 104 -160 261 -231 504 -81 275 -106 361 -135 452 -16 52 -39 127 -51 165 -12 39 -38 120 -57 180 -152 482 -239 832 -284 1150 -29 203 -37 547 -15 684 19 120 64 262 107 339 l29 52 -1430 0 -1430 0 0 -4800z"/>
 <path d="M4705 5054 c-488 -38 -758 -95 -990 -208 -60 -30 -139 -76 -175 -104 -165 -125 -289 -314 -290 -440 0 -68 25 -116 90 -175 130 -117 299 -70 388 109 38 75 84 116 193 171 98 49 314 107 481 129 167 22 563 36 698 25 321 -27 484 -97 975 -419 179 -118 225 -141 274 -142 87 0 173 55 215 139 56 111 40 207 -47 287 -30 27 -76 62 -103 79 -27 16 -102 64 -167 107 -142 94 -311 195 -404 241 -163 82 -411 156 -611 182 -115 15 -430 27 -527 19z"/>
 <path d="M3135 3411 c-172 -80 -182 -356 -15 -441 166 -83 350 30 350 215 0 102 -57 194 -142 229 -51 22 -143 20 -193 -3z"/>
 <path d="M6423 3423 c-36 -7 -119 -89 -138 -135 -20 -51 -21 -154 -2 -200 20 -48 64 -96 111 -121 58 -31 174 -31 232 0 47 25 95 82 112 132 19 55 15 145 -9 196 -26 55 -97 120 -140 129 -34 6 -130 6 -166 -1z"/>
 </g>
</svg>